<svg xmlns="http://www.w3.org/2000/svg" xmlns:xlink="http://www.w3.org/1999/xlink" style="z-index:1;position:relative" width="854" height="300" viewBox="0 0 854 300"><g transform="translate(427, 150) scale(1, 1) translate(-427, -150)"><defs><linearGradient id="linear" x1="0%" y1="0%" x2="100%" y2="0%"><stop offset="0%" stop-color="#fff332"/><stop offset="100%" stop-color="#ebcb0a"/></linearGradient></defs><path d="" fill="url(#linear)" opacity="0.4"><animate attributeName="d" dur="20s" repeatCount="indefinite" keyTimes="0;0.333;0.667;1" calcmod="spline" keySplines="0.2 0 0.2 1;0.2 0 0.2 1;0.2 0 0.2 1" begin="0s" values="M0 0L 0 220Q 213.5 260 427 230T 854 255L 854 0 Z;M0 0L 0 245Q 213.5 260 427 240T 854 230L 854 0 Z;M0 0L 0 265Q 213.5 235 427 265T 854 230L 854 0 Z;M0 0L 0 220Q 213.5 260 427 230T 854 255L 854 0 Z"/></path><path d="" fill="url(#linear)" opacity="0.4"><animate attributeName="d" dur="20s" repeatCount="indefinite" keyTimes="0;0.333;0.667;1" calcmod="spline" keySplines="0.2 0 0.2 1;0.2 0 0.2 1;0.2 0 0.2 1" begin="-5s" values="M0 0L 0 220Q 213.5 260 427 230T 854 255L 854 0 Z;M0 0L 0 245Q 213.5 260 427 240T 854 230L 854 0 Z;M0 0L 0 265Q 213.5 235 427 265T 854 230L 854 0 Z;M0 0L 0 220Q 213.5 260 427 230T 854 255L 854 0 Z"/></path><path d="" fill="url(#linear)" opacity="0.4"><animate attributeName="d" dur="20s" repeatCount="indefinite" keyTimes="0;0.333;0.667;1" calcmod="spline" keySplines="0.2 0 0.2 1;0.2 0 0.2 1;0.2 0 0.2 1" begin="-10s" values="M0 0L 0 235Q 213.5 280 427 250T 854 260L 854 0 Z;M0 0L 0 250Q 213.5 220 427 220T 854 240L 854 0 Z;M0 0L 0 245Q 213.5 225 427 250T 854 265L 854 0 Z;M0 0L 0 235Q 213.5 280 427 250T 854 260L 854 0 Z"/></path></g><svg role="img" viewBox="0 0 24 24" xmlns="http://www.w3.org/2000/svg" fill="black" height="40" x="-40%" y="35.5%"><path d="M0 0h24v24H0V0zm22.034 18.276c-.175-1.095-.888-2.015-3.003-2.873-.736-.345-1.554-.585-1.797-1.14-.091-.33-.105-.51-.046-.705.15-.646.915-.84 1.515-.66.39.12.75.42.976.9 1.034-.676 1.034-.676 1.755-1.125-.27-.42-.404-.601-.586-.78-.63-.705-1.469-1.065-2.834-1.034l-.705.089c-.676.165-1.32.525-1.71 1.005-1.14 1.291-.811 3.541.569 4.471 1.365 1.02 3.361 1.244 3.616 2.205.24 1.17-.87 1.545-1.966 1.41-.811-.18-1.26-.586-1.755-1.336l-1.83 1.051c.21.48.45.689.81 1.109 1.74 1.756 6.09 1.666 6.871-1.004.029-.09.24-.705.074-1.65l.046.067zm-8.983-7.245h-2.248c0 1.938-.009 3.864-.009 5.805 0 1.232.063 2.363-.138 2.711-.33.689-1.18.601-1.566.48-.396-.196-.597-.466-.83-.855-.063-.105-.11-.196-.127-.196l-1.825 1.125c.305.63.75 1.172 1.324 1.517.855.51 2.004.675 3.207.405.783-.226 1.458-.691 1.811-1.411.51-.93.402-2.07.397-3.346.012-2.054 0-4.109 0-6.179l.004-.056z"/></svg><text xmlns="http://www.w3.org/2000/svg" text-anchor="start" alignment-baseline="middle" x="15%" y="44%" style="fill: black; @import url(//fonts.googleapis.com/css?family=Lato:300); font-size: 50px; font-family: 'Lato', sans-serif; font-weight: 300;">Sangyoung Jo</text><text xmlns="http://www.w3.org/2000/svg" text-anchor="end" alignment-baseline="middle" x="93%" y="44%" style="fill: black; @import url(//fonts.googleapis.com/css?family=Lato:300); font-size: 23px; font-family: 'Lato', sans-serif; font-weight: 300;">대구소프트웨어마이스터고 7기</text></svg>